<svg aria-hidden="true" style="position: absolute; width: 0; height: 0; overflow: hidden;" version="1.1" xmlns="http://www.w3.org/2000/svg" xmlns:xlink="http://www.w3.org/1999/xlink">
<defs>
<symbol id="icon-pointer" viewBox="0 0 22 32">
<path fill="#d8082d" style="fill: var(--color1, #d8082d)" d="M11.229 0c-6.168 0-11.157 4.986-11.157 11.152 0 8.364 11.157 20.71 11.157 20.71s11.157-12.346 11.157-20.71c0-6.165-4.989-11.152-11.157-11.152zM11.229 15.134c-2.2 0-3.985-1.784-3.985-3.983s1.785-3.983 3.985-3.983c2.2 0 3.985 1.784 3.985 3.983s-1.785 3.983-3.985 3.983z"></path>
</symbol>
<symbol id="icon-menu-close" viewBox="0 0 32 32">
<path d="M31.439 3.166l-3.166-3.166-12.553 12.553-12.553-12.553-3.166 3.166 12.553 12.553-12.553 12.553 3.166 3.166 12.553-12.553 12.553 12.553 3.166-3.166-12.553-12.553 12.553-12.553z"></path>
</symbol>
<symbol id="icon-menu" viewBox="0 0 64 32">
<path fill="#fff" style="fill: var(--color2, #fff)" d="M3.429 0h56c1.894 0 3.429 1.535 3.429 3.429v0c0 1.894-1.535 3.429-3.429 3.429h-56c-1.894 0-3.429-1.535-3.429-3.429v0c0-1.894 1.535-3.429 3.429-3.429z"></path>
<path fill="#fff" style="fill: var(--color2, #fff)" d="M3.429 12.571h56c1.894 0 3.429 1.535 3.429 3.429v0c0 1.894-1.535 3.429-3.429 3.429h-56c-1.894 0-3.429-1.535-3.429-3.429v0c0-1.894 1.535-3.429 3.429-3.429z"></path>
<path fill="#fff" style="fill: var(--color2, #fff)" d="M3.429 25.143h56c1.894 0 3.429 1.535 3.429 3.429v0c0 1.894-1.535 3.429-3.429 3.429h-56c-1.894 0-3.429-1.535-3.429-3.429v0c0-1.894 1.535-3.429 3.429-3.429z"></path>
</symbol>
<symbol id="icon-mail" viewBox="0 0 39 32">
<path d="M33.061 0.842h-26.961c-2.784 0-5.038 2.269-5.038 5.053l-0.017 20.209c0 2.784 2.271 5.054 5.055 5.054h26.961c2.784 0 5.055-2.27 5.055-5.053v-20.211c0-2.783-2.271-5.053-5.055-5.053zM8.6 10.948c-0.797-0.48-1.054-1.516-0.573-2.313s1.515-1.053 2.311-0.573l9.193 5.536 9.594-5.777c0.797-0.48 1.833-0.221 2.313 0.576 0.479 0.795 0.226 1.831-0.567 2.312l-11.284 6.855-10.986-6.616z"></path>
</symbol>
<symbol id="icon-phone" viewBox="0 0 32 32">
<path d="M7.146 13.962c2.427 4.766 6.336 8.657 11.105 11.099l3.707-3.705c0.455-0.455 1.129-0.606 1.719-0.404 1.887 0.623 3.926 0.96 6.016 0.96 0.927 0 1.685 0.758 1.685 1.684v5.878c0 0.926-0.758 1.684-1.685 1.684-15.823 0-28.646-12.817-28.646-28.632 0-0.926 0.758-1.684 1.685-1.684h5.898c0.927 0 1.685 0.758 1.685 1.684 0 2.105 0.337 4.126 0.96 6.013 0.185 0.589 0.051 1.246-0.421 1.718l-3.707 3.705z"></path>
</symbol>
<symbol id="icon-pointer-small" viewBox="0 0 23 32">
<path d="M11.62 0.762c-5.9 0-10.672 4.77-10.672 10.667 0 8 10.672 19.81 10.672 19.81s10.672-11.81 10.672-19.81c0-5.897-4.772-10.667-10.672-10.667zM11.62 15.238c-2.104 0-3.812-1.707-3.812-3.81s1.708-3.81 3.812-3.81c2.104 0 3.812 1.707 3.812 3.81s-1.708 3.81-3.812 3.81z"></path>
</symbol>
</defs>
</svg>
