<svg width="26" height="26" viewBox="0 0 26 26" fill="none" xmlns="http://www.w3.org/2000/svg">
<path d="M22.6369 25.5H3.89668C3.0345 25.5 2.2984 25.1948 1.68836 24.5845C1.07833 23.9741 0.773315 23.2376 0.773315 22.375V3.625C0.773315 2.76237 1.07833 2.02588 1.68836 1.41553C2.2984 0.805176 3.0345 0.5 3.89668 0.5H22.6369C23.4991 0.5 24.2352 0.805176 24.8452 1.41553C25.4552 2.02588 25.7603 2.76237 25.7603 3.625V22.375C25.7603 23.2376 25.4552 23.9741 24.8452 24.5845C24.2352 25.1948 23.4991 25.5 22.6369 25.5ZM13.2668 9.875C12.4046 9.875 11.6685 10.1802 11.0585 10.7905C10.4484 11.4009 10.1434 12.1374 10.1434 13C10.1434 13.8626 10.4484 14.5991 11.0585 15.2095C11.6685 15.8198 12.4046 16.125 13.2668 16.125C14.129 16.125 14.8651 15.8198 15.4751 15.2095C16.0851 14.5991 16.3902 13.8626 16.3902 13C16.3902 12.1374 16.0851 11.4009 15.4751 10.7905C14.8651 10.1802 14.129 9.875 13.2668 9.875ZM22.6369 4.40625C22.6369 4.19466 22.5596 4.01156 22.4051 3.85693C22.2505 3.70231 22.0675 3.625 21.856 3.625H18.7327C18.5212 3.625 18.3382 3.70231 18.1836 3.85693C18.0291 4.01156 17.9518 4.19466 17.9518 4.40625V7.53125C17.9518 7.74284 18.0291 7.92594 18.1836 8.08057C18.3382 8.23519 18.5212 8.3125 18.7327 8.3125H21.856C22.0675 8.3125 22.2505 8.23519 22.4051 8.08057C22.5596 7.92594 22.6369 7.74284 22.6369 7.53125V4.40625ZM22.6369 12.2188C22.6369 12.0072 22.5596 11.8241 22.4051 11.6694C22.2505 11.5148 22.0675 11.4375 21.856 11.4375H20.2944C20.0829 11.4375 19.8999 11.5148 19.7453 11.6694C19.5908 11.8241 19.5135 12.0072 19.5135 12.2188V13C19.5135 14.7253 18.9035 16.1982 17.6834 17.4189C16.4634 18.6396 14.9911 19.25 13.2668 19.25C11.5424 19.25 10.0702 18.6396 8.85015 17.4189C7.63008 16.1982 7.02005 14.7253 7.02005 13V12.2188C7.02005 12.0072 6.94278 11.8241 6.78824 11.6694C6.6337 11.5148 6.45069 11.4375 6.23921 11.4375H4.67752C4.46605 11.4375 4.28304 11.5148 4.1285 11.6694C3.97395 11.8241 3.89668 12.0072 3.89668 12.2188V21.5938C3.89668 21.8053 3.97395 21.9884 4.1285 22.1431C4.28304 22.2977 4.46605 22.375 4.67752 22.375H21.856C22.0675 22.375 22.2505 22.2977 22.4051 22.1431C22.5596 21.9884 22.6369 21.8053 22.6369 21.5938V12.2188Z" fill="white"/>
</svg>
