<svg width="31" height="26" viewBox="0 0 31 26" fill="none" xmlns="http://www.w3.org/2000/svg">
<path d="M30.9968 3.46969C29.8667 3.95785 28.6369 4.30918 27.3701 4.44602C28.6853 3.66361 29.6702 2.42753 30.14 0.969689C28.9059 1.70486 27.5539 2.22037 26.144 2.49336C25.5547 1.86254 24.842 1.36 24.0503 1.01705C23.2586 0.674109 22.4048 0.498107 21.5422 0.500015C18.0522 0.500015 15.2453 3.33285 15.2453 6.80918C15.2453 7.29735 15.3044 7.78551 15.4005 8.25519C10.1746 7.98152 5.51378 5.48152 2.41519 1.65386C1.85059 2.61952 1.55472 3.71904 1.55837 4.83803C1.55837 7.02738 2.67002 8.95785 4.36519 10.0932C3.3662 10.0538 2.3906 9.77885 1.51774 9.29069V9.36835C1.51774 12.4342 3.68195 14.9749 6.56634 15.5592C6.02476 15.7 5.46764 15.7721 4.90809 15.7737C4.49815 15.7737 4.11036 15.733 3.71888 15.6775C4.51661 18.1775 6.83963 19.9933 9.60584 20.0525C7.44163 21.75 4.73082 22.7485 1.78734 22.7485C1.25922 22.7485 0.771715 22.73 0.265747 22.6709C3.0578 24.4645 6.3706 25.5 9.93823 25.5C21.5201 25.5 27.8576 15.892 27.8576 7.55253C27.8576 7.27886 27.8576 7.00519 27.8391 6.73152C29.0653 5.83285 30.14 4.71969 30.9968 3.46969Z" fill="white"/>
</svg>
